<?xml version="1.0" standalone="no"?>
<!DOCTYPE svg PUBLIC "-//W3C//DTD SVG 20010904//EN"
 "http://www.w3.org/TR/2001/REC-SVG-20010904/DTD/svg10.dtd">
<svg version="1.0" xmlns="http://www.w3.org/2000/svg"
 width="249.000000pt" height="249.000000pt" viewBox="0 0 249.000000 249.000000"
 preserveAspectRatio="xMidYMid meet">
<metadata>
Created by potrace 1.11, written by Peter Selinger 2001-2013
</metadata>
<g transform="translate(0.000000,249.000000) scale(0.100000,-0.100000)"
fill="#000000" stroke="none">
<path d="M1173 2264 c-3 -10 -1 -30 4 -45 9 -23 8 -31 -3 -37 -12 -7 -11 -11
5 -28 27 -30 35 -60 16 -68 -8 -3 -15 -11 -15 -19 0 -7 -20 -27 -45 -45 -25
-17 -45 -36 -45 -42 0 -5 -7 -10 -16 -10 -8 0 -13 -4 -9 -9 3 -5 -4 -16 -15
-24 -11 -7 -17 -17 -13 -20 3 -4 0 -7 -7 -7 -7 0 -10 -3 -7 -7 4 -3 2 -12 -4
-20 -6 -7 -8 -13 -4 -13 4 0 3 -6 -2 -12 -10 -12 -28 -86 -25 -100 1 -4 3 -20
4 -37 1 -16 5 -28 8 -26 9 5 29 -22 22 -31 -4 -4 -2 -4 5 -1 6 4 19 0 28 -9 8
-9 26 -17 39 -18 17 -1 22 -7 22 -28 0 -16 -4 -28 -8 -28 -5 0 -7 -9 -3 -19 7
-22 -62 -104 -78 -94 -6 3 -7 2 -4 -4 5 -8 -39 -56 -53 -58 -2 0 -14 -9 -26
-20 -72 -67 -107 -94 -118 -88 -8 4 -8 2 1 -7 16 -17 59 -5 87 25 13 14 26 25
29 25 4 0 35 27 69 60 112 106 94 61 -26 -65 -36 -38 -66 -71 -66 -73 0 -2
-12 -14 -27 -28 -28 -26 -26 -42 3 -26 9 5 53 45 96 88 l80 79 -7 -40 c-5 -31
-29 -149 -40 -195 -1 -3 -5 -21 -9 -40 -5 -19 -13 -41 -18 -47 -6 -7 -7 -13
-2 -13 5 0 8 -56 8 -124 -2 -121 -1 -125 22 -143 13 -10 24 -23 24 -29 0 -6
18 -11 40 -12 27 -1 39 2 37 11 -3 18 187 14 210 -4 22 -19 73 -20 73 -3 0 8
4 14 8 14 5 0 15 17 23 38 11 28 14 80 11 217 -1 99 -2 187 -2 195 0 8 0 53 0
98 0 76 2 84 20 89 18 5 20 12 17 55 -2 26 -1 50 2 52 6 4 5 97 -2 231 -2 33
-10 74 -20 91 -9 17 -13 34 -10 38 4 3 1 6 -6 6 -7 0 -10 4 -6 9 3 5 1 12 -5
16 -5 3 -10 16 -10 27 0 13 -21 42 -50 70 -48 46 -61 73 -40 80 6 2 13 33 16
69 6 60 4 68 -16 87 -12 11 -28 18 -36 15 -24 -9 -61 6 -67 27 -6 25 -55 28
-64 4z"/>
<path d="M700 460 c0 -5 11 -10 25 -10 25 0 26 -1 23 -72 -2 -49 1 -73 10 -76
9 -3 12 17 12 72 0 69 2 76 19 76 11 0 23 5 26 10 4 6 -17 10 -54 10 -34 0
-61 -4 -61 -10z"/>
<path d="M912 393 c3 -75 4 -78 31 -87 49 -17 62 0 65 88 2 46 -1 76 -7 76 -6
0 -11 -33 -13 -72 -3 -70 -4 -73 -28 -73 -24 0 -25 3 -28 73 -2 39 -7 72 -13
72 -6 0 -9 -31 -7 -77z"/>
<path d="M1116 457 c-12 -9 -20 -31 -23 -63 -4 -40 -1 -53 17 -71 23 -26 62
-30 79 -9 6 7 13 27 15 45 3 29 2 31 -30 31 -19 0 -34 -4 -34 -10 0 -5 9 -10
21 -10 29 0 22 -44 -8 -48 -37 -5 -52 52 -28 111 8 20 35 23 53 5 6 -6 15 -8
19 -4 10 9 -25 36 -47 36 -9 0 -24 -6 -34 -13z"/>
<path d="M1299 458 c-9 -112 8 -158 57 -158 32 0 46 23 46 77 1 77 -1 93 -12
93 -5 0 -10 -33 -12 -72 -3 -62 -6 -73 -22 -76 -27 -6 -36 15 -36 86 0 34 -4
62 -10 62 -5 0 -10 -6 -11 -12z"/>
<path d="M1479 433 c0 -21 -1 -58 -2 -82 -1 -27 4 -46 11 -49 8 -2 12 15 13
60 l0 63 16 -32 c9 -18 19 -33 22 -33 3 0 14 17 23 38 l17 37 0 -40 c-1 -82 1
-97 14 -92 6 2 11 9 10 15 -2 6 -3 43 -4 81 -2 82 -20 95 -46 34 l-15 -38 -15
38 c-20 49 -43 49 -44 0z"/>
<path d="M1706 461 c-3 -5 1 -11 8 -14 21 -8 18 -118 -3 -134 -13 -10 -8 -12
29 -12 40 0 43 1 28 13 -14 10 -18 28 -18 71 0 43 4 61 18 71 15 12 13 13 -20
14 -20 0 -39 -4 -42 -9z"/>
<path d="M859 167 c-7 -30 8 -44 33 -34 8 4 7 6 -4 6 -10 1 -18 11 -20 29 l-3
27 -6 -28z"/>
<path d="M920 160 c0 -25 4 -30 23 -29 19 1 19 2 3 6 -15 4 -16 7 -5 14 10 6
10 9 2 9 -19 0 -16 18 5 23 13 4 11 5 -5 6 -19 1 -23 -4 -23 -29z"/>
<path d="M990 166 c-5 -15 -10 -28 -10 -29 0 -1 11 -2 24 -2 18 0 23 5 20 19
-7 35 -23 41 -34 12z"/>
<path d="M1048 165 c-3 -14 -1 -28 3 -31 5 -3 9 0 9 7 0 9 3 9 14 -1 13 -10
15 -7 13 17 -3 37 -33 43 -39 8z m27 5 c3 -5 1 -10 -4 -10 -6 0 -11 5 -11 10
0 6 2 10 4 10 3 0 8 -4 11 -10z"/>
<path d="M1110 162 c0 -21 5 -28 20 -28 16 0 20 7 19 31 0 28 -1 28 -9 8 -12
-28 -20 -30 -13 -3 3 11 0 20 -6 20 -6 0 -11 -13 -11 -28z"/>
<path d="M1195 160 c-1 -16 4 -30 10 -30 5 0 10 14 10 30 0 17 -5 30 -10 30
-6 0 -10 -13 -10 -30z"/>
<path d="M1241 158 c0 -27 2 -30 9 -13 7 18 8 19 15 3 12 -29 25 -21 24 15 0
26 -2 29 -9 12 -7 -18 -8 -19 -15 -2 -12 28 -25 20 -24 -15z"/>
<path d="M1314 175 c-9 -21 3 -45 21 -45 8 0 15 7 15 15 0 8 -7 15 -15 15 -8
0 -15 5 -15 11 0 6 7 9 15 5 8 -3 15 -1 15 4 0 16 -30 11 -36 -5z"/>
<path d="M1450 166 c-5 -15 -10 -28 -10 -29 0 -1 11 -2 25 -2 20 0 24 4 19 20
-11 35 -23 39 -34 11z"/>
<path d="M1510 160 c0 -29 1 -29 20 -13 11 10 20 23 20 30 0 7 -9 13 -20 13
-16 0 -20 -7 -20 -30z m30 10 c0 -5 -4 -10 -10 -10 -5 0 -10 5 -10 10 0 6 5
10 10 10 6 0 10 -4 10 -10z"/>
<path d="M1570 160 c0 -29 1 -29 20 -13 11 10 20 23 20 30 0 7 -9 13 -20 13
-16 0 -20 -7 -20 -30z m30 10 c0 -5 -2 -10 -4 -10 -3 0 -8 5 -11 10 -3 6 -1
10 4 10 6 0 11 -4 11 -10z"/>
</g>
</svg>
